<?xml version="1.0" encoding="utf-8"?><svg xmlns="http://www.w3.org/2000/svg" xmlns:xlink="http://www.w3.org/1999/xlink"><symbol viewBox="0 0 228 100" id="arrow-big-right" xmlns="http://www.w3.org/2000/svg">
    <path d="M198.833 50L157.167 50M198.833 50L182.167 66.6666M198.833 50L182.167 33.3333" stroke-width="3" stroke-linecap="round" stroke-linejoin="round"/>
    <path d="M157.5 50H0" stroke-width="3"/>
</symbol><symbol viewBox="0 0 100 100" id="arrow-small-right" xmlns="http://www.w3.org/2000/svg">
    <path d="M70.8333 50L29.1667 50M70.8333 50L54.1667 66.6667M70.8333 50L54.1667 33.3333" stroke-width="3" stroke-linecap="round" stroke-linejoin="round"/>
</symbol><symbol viewBox="0 0 70 70" id="location" xmlns="http://www.w3.org/2000/svg">
    <path fill-rule="evenodd" clip-rule="evenodd" d="M35 5.83334C46.2758 5.83334 55.4166 14.9742 55.4166 26.25C55.4166 29.6593 54.5834 32.8717 53.1039 35.6983L35 67.0833L17.3154 36.4595C15.575 33.4542 14.5833 29.9693 14.5833 26.25C14.5833 14.9742 23.7242 5.83334 35 5.83334ZM35 11.6667C26.9458 11.6667 20.4166 18.1959 20.4166 26.25C20.4166 28.566 20.9509 30.7882 21.962 32.7943L22.452 33.6893L35 55.4167L47.6366 33.5362C48.9071 31.3423 49.5833 28.8555 49.5833 26.25C49.5833 18.1959 43.0541 11.6667 35 11.6667ZM35 17.5C39.8325 17.5 43.75 21.4175 43.75 26.25C43.75 31.0825 39.8325 35 35 35C30.1675 35 26.25 31.0825 26.25 26.25C26.25 21.4175 30.1675 17.5 35 17.5ZM35 23.3333C33.3891 23.3333 32.0833 24.6392 32.0833 26.25C32.0833 27.8608 33.3891 29.1667 35 29.1667C36.6108 29.1667 37.9166 27.8608 37.9166 26.25C37.9166 24.6392 36.6108 23.3333 35 23.3333Z"/>
</symbol><symbol viewBox="0 0 90 42" id="logo" xmlns="http://www.w3.org/2000/svg">
    <path d="M0.88 1.32H6.384V36.712H18.48V41H0.88V1.32ZM31.4725 41.32C28.1872 41.32 25.7338 40.7227 24.1125 39.528C22.5338 38.3333 21.7445 36.6693 21.7445 34.536V7.464C21.7445 5.50133 22.4912 3.90133 23.9845 2.664C25.5205 1.384 28.0165 0.765333 31.4725 0.807999C34.9712 0.850665 37.4672 1.49066 38.9605 2.728C40.4965 3.92266 41.2645 5.52266 41.2645 7.528V34.536C41.2645 36.6267 40.4752 38.2907 38.8965 39.528C37.3178 40.7227 34.8432 41.32 31.4725 41.32ZM31.4725 36.776C33.0512 36.776 34.1818 36.456 34.8645 35.816C35.5472 35.1333 35.8885 34.2373 35.8885 33.128V8.872C35.8885 7.80533 35.5685 6.952 34.9285 6.312C34.3312 5.62933 33.1578 5.288 31.4085 5.288C29.7872 5.288 28.6565 5.62933 28.0165 6.312C27.4192 6.952 27.1205 7.784 27.1205 8.808V33.128C27.1205 34.28 27.4618 35.176 28.1445 35.816C28.8272 36.456 29.9365 36.776 31.4725 36.776ZM56.0395 41.32C53.8635 41.32 52.0288 41.1067 50.5355 40.68C49.0848 40.2107 47.9755 39.4853 47.2075 38.504C46.4822 37.5227 46.1195 36.2427 46.1195 34.664V7.912C46.1195 5.224 46.9515 3.41066 48.6155 2.472C50.2795 1.49067 52.7328 1 55.9755 1C59.0902 1 61.4795 1.49067 63.1435 2.472C64.8075 3.45333 65.6395 5.288 65.6395 7.976V14.184L60.1355 14.504V9C60.1355 7.54933 59.7942 6.61066 59.1115 6.184C58.4715 5.71467 57.4475 5.48 56.0395 5.48C54.6315 5.48 53.5435 5.71467 52.7755 6.184C52.0075 6.61066 51.6235 7.528 51.6235 8.936V33.832C51.6235 34.6853 51.7942 35.3253 52.1355 35.752C52.5195 36.136 53.0315 36.4133 53.6715 36.584C54.3542 36.712 55.1648 36.776 56.1035 36.776C56.9995 36.776 57.7462 36.712 58.3435 36.584C58.9835 36.4133 59.4742 36.136 59.8155 35.752C60.1568 35.3253 60.3275 34.6853 60.3275 33.832V24.296H55.0795L55.4635 19.688H65.6395V34.664C65.6395 36.2427 65.2555 37.5227 64.4875 38.504C63.7622 39.4853 62.6742 40.2107 61.2235 40.68C59.8155 41.1067 58.0875 41.32 56.0395 41.32ZM80.035 41.32C76.7497 41.32 74.2963 40.7227 72.675 39.528C71.0963 38.3333 70.307 36.6693 70.307 34.536V7.464C70.307 5.50133 71.0537 3.90133 72.547 2.664C74.083 1.384 76.579 0.765333 80.035 0.807999C83.5337 0.850665 86.0297 1.49066 87.523 2.728C89.059 3.92266 89.827 5.52266 89.827 7.528V34.536C89.827 36.6267 89.0377 38.2907 87.459 39.528C85.8803 40.7227 83.4057 41.32 80.035 41.32ZM80.035 36.776C81.6137 36.776 82.7443 36.456 83.427 35.816C84.1097 35.1333 84.451 34.2373 84.451 33.128V8.872C84.451 7.80533 84.131 6.952 83.491 6.312C82.8937 5.62933 81.7203 5.288 79.971 5.288C78.3497 5.288 77.219 5.62933 76.579 6.312C75.9817 6.952 75.683 7.784 75.683 8.808V33.128C75.683 34.28 76.0243 35.176 76.707 35.816C77.3897 36.456 78.499 36.776 80.035 36.776Z"/>
</symbol><symbol viewBox="0 0 65 65" id="mail" xmlns="http://www.w3.org/2000/svg">
    <path d="M8.91825 14.3349C9.40836 13.8448 10.0854 13.5417 10.8333 13.5417H54.1667C54.9146 13.5417 55.5916 13.8448 56.0817 14.3349M8.91825 14.3349C8.42814 14.825 8.125 15.5021 8.125 16.25V48.75C8.125 50.2458 9.33756 51.4583 10.8333 51.4583H54.1667C55.6624 51.4583 56.875 50.2458 56.875 48.75V16.25C56.875 15.5021 56.5719 14.825 56.0817 14.3349M8.91825 14.3349L28.6698 34.0864C30.7852 36.2017 34.2148 36.2017 36.3302 34.0864L56.0817 14.3349" stroke-width="6" stroke-linecap="round" stroke-linejoin="round"/>
</symbol><symbol viewBox="0 0 59 59" id="phone-call" xmlns="http://www.w3.org/2000/svg">
    <path d="M35.6458 15.9792C37.458 16.3327 39.2569 17.1319 40.5625 18.4375C41.8681 19.7431 42.6673 21.542 43.0208 23.3542M36.875 7.375C40.64 7.79326 44.028 9.61471 46.7083 12.2917C49.3887 14.9686 51.202 18.3605 51.625 22.125M51.6237 40.5051V47.1666C51.634 49.7131 49.3443 51.8395 46.7734 51.6077C24.5835 51.625 7.37515 34.2568 7.39252 12.2159C7.16097 9.65866 9.27686 7.37761 11.8201 7.37522H18.4948C19.5746 7.36461 20.6214 7.74621 21.4401 8.4489C23.7676 10.4467 25.2648 17.2274 24.6887 19.923C24.239 22.0276 22.1175 23.4999 20.6752 24.9394C23.8425 30.4985 28.4545 35.1014 34.0247 38.2624C35.467 36.823 36.9423 34.7057 39.051 34.2568C41.7561 33.6811 48.5805 35.1803 50.5702 37.5241C51.2758 38.3552 51.6507 39.4161 51.6237 40.5051Z" stroke-width="6" stroke-linecap="round" stroke-linejoin="round"/>
</symbol></svg>