<?xml version="1.0" encoding="utf-8"?><svg viewBox="0 0 228 100" xmlns="http://www.w3.org/2000/svg" xmlns:xlink="http://www.w3.org/1999/xlink"><style>:root>svg{display:none}:root>svg:target{display:block}</style><svg fill="none" viewBox="0 0 228 100" id="arrow-big-right" xmlns="http://www.w3.org/2000/svg">
    <path d="M198.833 50h-41.666m41.666 0-16.666 16.667M198.833 50l-16.666-16.667" stroke="#C0B7E8" stroke-width="3" stroke-linecap="round" stroke-linejoin="round"/>
    <path d="M157.5 50H0" stroke="#C0B7E8" stroke-width="3"/>
</svg><svg fill="none" viewBox="0 0 100 100" id="arrow-small-right" xmlns="http://www.w3.org/2000/svg">
    <path d="M70.833 50H29.167m41.666 0L54.167 66.667M70.833 50 54.167 33.333" stroke="#C0B7E8" stroke-width="3" stroke-linecap="round" stroke-linejoin="round"/>
</svg><svg fill="none" viewBox="0 0 70 70" id="location" xmlns="http://www.w3.org/2000/svg">
    <path fill-rule="evenodd" clip-rule="evenodd" d="M35 5.833c11.276 0 20.417 9.141 20.417 20.417 0 3.41-.834 6.622-2.313 9.448L35 67.083 17.315 36.46a20.3 20.3 0 0 1-2.732-10.21c0-11.276 9.141-20.417 20.417-20.417Zm0 5.834c-8.054 0-14.583 6.529-14.583 14.583 0 2.316.534 4.538 1.545 6.544l.49.895L35 55.417l12.637-21.88a14.465 14.465 0 0 0 1.946-7.287c0-8.054-6.529-14.583-14.583-14.583Zm0 5.833A8.75 8.75 0 1 1 35 35a8.75 8.75 0 0 1 0-17.5Zm0 5.833a2.917 2.917 0 1 0 0 5.834 2.917 2.917 0 0 0 0-5.834Z" fill="#C0B7E8"/>
</svg><svg fill="none" viewBox="0 0 90 42" id="logo" xmlns="http://www.w3.org/2000/svg">
    <path d="M.88 1.32h5.504v35.392H18.48V41H.88V1.32Zm30.593 40c-3.286 0-5.74-.597-7.36-1.792-1.58-1.195-2.369-2.859-2.369-4.992V7.464c0-1.963.747-3.563 2.24-4.8C25.52 1.384 28.017.765 31.473.808c3.5.043 5.995.683 7.489 1.92 1.535 1.195 2.303 2.795 2.303 4.8v27.008c0 2.09-.789 3.755-2.367 4.992-1.58 1.195-4.054 1.792-7.424 1.792Zm0-4.544c1.578 0 2.709-.32 3.392-.96.682-.683 1.023-1.579 1.023-2.688V8.872c0-1.067-.32-1.92-.96-2.56-.597-.683-1.77-1.024-3.52-1.024-1.62 0-2.752.341-3.392 1.024-.597.64-.895 1.472-.895 2.496v24.32c0 1.152.34 2.048 1.024 2.688.682.64 1.791.96 3.328.96Zm24.566 4.544c-2.175 0-4.01-.213-5.504-.64-1.45-.47-2.56-1.195-3.327-2.176-.726-.981-1.088-2.261-1.088-3.84V7.912c0-2.688.832-4.501 2.495-5.44C50.28 1.491 52.733 1 55.975 1c3.115 0 5.505.49 7.169 1.472 1.664.981 2.495 2.816 2.495 5.504v6.208l-5.503.32V9c0-1.45-.342-2.39-1.025-2.816-.64-.47-1.663-.704-3.072-.704-1.407 0-2.495.235-3.264.704-.767.427-1.151 1.344-1.151 2.752v24.896c0 .853.17 1.493.511 1.92.385.384.897.661 1.537.832.682.128 1.493.192 2.431.192.896 0 1.643-.064 2.24-.192.64-.17 1.131-.448 1.472-.832.342-.427.513-1.067.513-1.92v-9.536H55.08l.384-4.608h10.175v14.976c0 1.579-.383 2.859-1.151 3.84-.726.981-1.814 1.707-3.264 2.176-1.408.427-3.136.64-5.184.64Zm23.996 0c-3.285 0-5.739-.597-7.36-1.792-1.579-1.195-2.368-2.859-2.368-4.992V7.464c0-1.963.747-3.563 2.24-4.8 1.536-1.28 4.032-1.899 7.488-1.856 3.499.043 5.995.683 7.488 1.92 1.536 1.195 2.304 2.795 2.304 4.8v27.008c0 2.09-.79 3.755-2.368 4.992-1.579 1.195-4.053 1.792-7.424 1.792Zm0-4.544c1.579 0 2.71-.32 3.392-.96.683-.683 1.024-1.579 1.024-2.688V8.872c0-1.067-.32-1.92-.96-2.56-.597-.683-1.77-1.024-3.52-1.024-1.621 0-2.752.341-3.392 1.024-.597.64-.896 1.472-.896 2.496v24.32c0 1.152.341 2.048 1.024 2.688.683.64 1.792.96 3.328.96Z" fill="#fff"/>
</svg><svg fill="none" viewBox="0 0 65 65" id="mail" xmlns="http://www.w3.org/2000/svg">
    <path d="M8.918 14.335a2.7 2.7 0 0 1 1.915-.793h43.334a2.7 2.7 0 0 1 1.915.793m-47.164 0a2.7 2.7 0 0 0-.793 1.915v32.5a2.708 2.708 0 0 0 2.708 2.708h43.334a2.708 2.708 0 0 0 2.708-2.708v-32.5a2.7 2.7 0 0 0-.793-1.915m-47.164 0L28.67 34.086a5.417 5.417 0 0 0 7.66 0l19.752-19.751" stroke="#C0B7E8" stroke-width="6" stroke-linecap="round" stroke-linejoin="round"/>
</svg><svg fill="none" viewBox="0 0 59 59" id="phone-call" xmlns="http://www.w3.org/2000/svg">
    <path d="M35.646 15.98c1.812.353 3.61 1.152 4.916 2.457 1.306 1.306 2.105 3.105 2.459 4.917M36.875 7.375c3.765.418 7.153 2.24 9.833 4.917 2.68 2.677 4.494 6.068 4.917 9.833m-.001 18.38v6.662c.01 2.546-2.28 4.672-4.85 4.44-22.19.018-39.399-17.35-39.381-39.391-.232-2.557 1.884-4.838 4.427-4.84h6.675a4.455 4.455 0 0 1 2.945 1.073c2.328 1.998 3.825 8.778 3.249 11.474-.45 2.105-2.572 3.577-4.014 5.016a35.563 35.563 0 0 0 13.35 13.323c1.442-1.439 2.917-3.556 5.026-4.005 2.705-.576 9.53.923 11.52 3.267a4.436 4.436 0 0 1 1.053 2.981Z" stroke="#C0B7E8" stroke-width="6" stroke-linecap="round" stroke-linejoin="round"/>
</svg></svg>